<?xml version="1.0" standalone="no"?>
<!DOCTYPE svg PUBLIC "-//W3C//DTD SVG 20010904//EN"
 "http://www.w3.org/TR/2001/REC-SVG-20010904/DTD/svg10.dtd">
<svg version="1.0" xmlns="http://www.w3.org/2000/svg"
 width="266.000000pt" height="266.000000pt" viewBox="0 0 266.000000 266.000000"
 preserveAspectRatio="xMidYMid meet">
<metadata>
Created by potrace 1.14, written by Peter Selinger 2001-2017
</metadata>
<g transform="translate(0.000000,266.000000) scale(0.100000,-0.100000)"
fill="#000000" stroke="none">
<path d="M980 2450 l0 -70 -140 0 -140 0 0 -70 0 -70 -140 0 -140 0 0 -70 0
-70 -70 0 -70 0 0 -70 0 -70 -70 0 -70 0 0 -70 0 -70 -70 0 -70 0 0 -140 0
-140 70 0 70 0 0 140 0 140 70 0 70 0 0 70 0 70 70 0 70 0 0 70 0 70 140 0
140 0 0 70 0 70 140 0 140 0 0 70 0 70 280 0 280 0 0 -70 0 -70 140 0 140 0 0
-140 0 -140 70 0 70 0 0 -70 0 -70 -70 0 -70 0 0 -70 0 -70 70 0 70 0 0 -70 0
-70 70 0 70 0 0 280 0 280 -70 0 -70 0 0 70 0 70 -70 0 -70 0 0 70 0 70 -140
0 -140 0 0 70 0 70 -280 0 -280 0 0 -70z"/>
<path d="M1400 2030 l0 -70 70 0 70 0 0 -70 0 -70 -70 0 -70 0 0 -70 0 -70 70
0 70 0 0 -70 0 -70 70 0 70 0 0 210 0 210 -70 0 -70 0 0 70 0 70 -70 0 -70 0
0 -70z"/>
<path d="M2240 1750 l0 -70 70 0 70 0 0 -210 0 -210 70 0 70 0 0 210 0 210
-70 0 -70 0 0 70 0 70 -70 0 -70 0 0 -70z"/>
<path d="M840 1050 l0 -70 -70 0 -70 0 0 -210 0 -210 70 0 70 0 0 -70 0 -70
-140 0 -140 0 0 -70 0 -70 70 0 70 0 0 -70 0 -70 -70 0 -70 0 0 -70 0 -70 70
0 70 0 0 70 0 70 420 0 420 0 0 70 0 70 70 0 70 0 0 70 0 70 70 0 70 0 0 210
0 210 70 0 70 0 0 70 0 70 -280 0 -280 0 0 70 0 70 -280 0 -280 0 0 -70z m840
-420 l0 -210 -70 0 -70 0 0 -70 0 -70 -350 0 -350 0 0 70 0 70 280 0 280 0 0
70 0 70 70 0 70 0 0 140 0 140 70 0 70 0 0 -210z"/>
<path d="M2100 1050 l0 -70 70 0 70 0 0 70 0 70 -70 0 -70 0 0 -70z"/>
<path d="M420 630 l0 -70 70 0 70 0 0 70 0 70 -70 0 -70 0 0 -70z"/>
</g>
</svg>
