<svg xmlns="http://www.w3.org/2000/svg" viewBox="0 0 128 128" style="enable-background:new 0 0 512 512" xml:space="preserve"><path d="M124.58 87.78a16.47 16.47 0 0 0-17-5.89 11.9 11.9 0 0 1-11.18-3.32L81.83 64 96.4 49.43a11.89 11.89 0 0 1 11.18-3.33A16.41 16.41 0 1 0 114 14a16.41 16.41 0 1 0-32.15 6.46 11.9 11.9 0 0 1-3.28 11.14L64 46.17 49.43 31.6a11.9 11.9 0 0 1-3.33-11.18A16.41 16.41 0 1 0 14 14a16.41 16.41 0 1 0 6.46 32.15 11.9 11.9 0 0 1 11.14 3.28L46.17 64 31.6 78.57a11.9 11.9 0 0 1-11.18 3.33A16.41 16.41 0 1 0 14 114a16.4 16.4 0 0 0 7 11.11 16.45 16.45 0 0 0 19.29-.57 16.48 16.48 0 0 0 5.89-17 11.9 11.9 0 0 1 3.25-11.14L64 81.83 78.57 96.4a11.9 11.9 0 0 1 3.33 11.18A16.41 16.41 0 0 0 97.84 128a16.22 16.22 0 0 0 9.24-2.85A16.4 16.4 0 0 0 114 114a16.4 16.4 0 0 0 10.54-26.26zM34.43 46.6a15.91 15.91 0 0 0-15-4.38 12.41 12.41 0 1 1-3.57-24.44 2 2 0 0 0 1.91-1.91 12.41 12.41 0 1 1 24.44 3.57 15.91 15.91 0 0 0 4.38 15L61.17 49 49 61.17zm12.18 47a15.91 15.91 0 0 0-4.38 15 12.41 12.41 0 1 1-24.44 3.57 2 2 0 0 0-1.91-1.91 12.41 12.41 0 1 1 3.57-24.44 15.92 15.92 0 0 0 15-4.38l16-16 14.63-14.7a1.84 1.84 0 0 0 .66-.66L81.4 34.43a15.91 15.91 0 0 0 4.38-15 12.41 12.41 0 1 1 24.44-3.57 2 2 0 0 0 1.91 1.91 12.41 12.41 0 1 1-3.57 24.44 15.92 15.92 0 0 0-15 4.38l-16 16-15 15h-.05v.05zm75.25 11.23a12.43 12.43 0 0 1-9.74 5.41 2 2 0 0 0-1.91 1.91 12.41 12.41 0 1 1-24.44-3.57 15.91 15.91 0 0 0-4.38-15L66.83 79 79 66.83 93.57 81.4a15.92 15.92 0 0 0 15 4.38 12.42 12.42 0 0 1 13.3 19z" fill="currentColor" data-original="#000000"/></svg>