<svg xmlns="http://www.w3.org/2000/svg" viewBox="0 0 64 64" width="70" xml:space="preserve"><path d="M53.98 40h3v3h-3z" fill="#e6e9ed" data-original="#e6e9ed"/><path d="M38.33 61.41A28.016 28.016 0 0 1 10.5 56h11.52a3 3 0 0 0 0-6h-5.01a2.998 2.998 0 0 0 1.19-5.75c2.01-2.73 3.82-6.07 3.82-9.21a9 9 0 0 0-18 0A10.23 10.23 0 0 0 4.5 38H1.18a27.016 27.016 0 0 1-.16-3A28.008 28.008 0 0 1 40.05 9.26c-.02.24-.03.49-.03.74a10.175 10.175 0 0 0 .49 3h-5.49a3 3 0 0 0 0 6h-12a3 3 0 1 0 0 6h6a3 3 0 1 0 0 6h7a3 3 0 0 0 0 6h6.96v6h-3a3.009 3.009 0 0 0-3 3v6h1v8a3.065 3.065 0 0 0 .35 1.41z" fill="#4a89dc" data-original="#4a89dc"/><path d="M22.02 50a3 3 0 0 1 0 6H10.5a27.924 27.924 0 0 1-9.32-18H4.5c1.86 6.12 8.52 12.04 8.52 12.04a40.217 40.217 0 0 0 5.18-5.79A2.998 2.998 0 0 1 17.01 50z" fill="#a0d468" data-original="#a0d468"/><path d="M19.02 35.04a5.993 5.993 0 0 1-2.5 4.87v-.37a3.504 3.504 0 0 0-3.5-3.5 2 2 0 1 0-2-2 2.006 2.006 0 0 0 2 2 3.497 3.497 0 0 0-3.5 3.5v.37a5.999 5.999 0 1 1 9.5-4.87z" fill="#da4453" data-original="#da4453"/><path d="M13.02 26.04a9 9 0 0 1 9 9c0 3.14-1.81 6.48-3.82 9.21a40.217 40.217 0 0 1-5.18 5.79S6.36 44.12 4.5 38a10.23 10.23 0 0 1-.48-2.96 9 9 0 0 1 9-9zm6 9a6.007 6.007 0 1 0-2.5 4.87 6.005 6.005 0 0 0 2.5-4.87z" fill="#ed5565" data-original="#ed5565"/><path d="M42.98 40h3v3h-3z" fill="#e6e9ed" data-original="#e6e9ed"/><path d="M16.52 39.54v.37a5.985 5.985 0 0 1-7 0v-.37a3.5 3.5 0 0 1 7 0z" fill="#ffce54" data-original="#ffce54"/><circle cx="13.02" cy="34.04" fill="#eac6bb" r="2" data-original="#eac6bb"/><path d="M62.98 46v6h-11v-3h-4v3h-11v-6a3.009 3.009 0 0 1 3-3h20a3.009 3.009 0 0 1 3 3z" fill="#656d78" data-original="#656d78"/><path d="M38.33 61.41a3.065 3.065 0 0 1-.35-1.41v-8h10v3h4v-3h10v8a3.009 3.009 0 0 1-3 3h-18a3.028 3.028 0 0 1-2.65-1.59z" fill="#545c66" data-original="#545c66"/><path d="M45.98 40h8v3h-8z" fill="#4a89dc" data-original="#4a89dc"/><path d="M56.98 37v3h-14v-3h13.96z" fill="#656d78" data-original="#656d78"/><path d="M51.98 52v3h-4v-6h4zM52.52 14.5v.37a5.985 5.985 0 0 1-7 0v-.37a3.5 3.5 0 0 1 7 0z" fill="#ffce54" data-original="#ffce54"/><circle cx="49.02" cy="9" fill="#eac6bb" r="2" data-original="#eac6bb"/><path d="M55.02 10a5.993 5.993 0 0 1-2.5 4.87v-.37a3.504 3.504 0 0 0-3.5-3.5 2 2 0 1 0-2-2 2.006 2.006 0 0 0 2 2 3.497 3.497 0 0 0-3.5 3.5v.37a5.999 5.999 0 1 1 9.5-4.87z" fill="#da4453" data-original="#da4453"/><path d="M55.02 10a6.007 6.007 0 1 0-2.5 4.87 6.005 6.005 0 0 0 2.5-4.87zm-6-9a9 9 0 0 1 9 9c0 3.73-2.55 7.74-4.94 10.67A40.415 40.415 0 0 1 49.02 25s-6.64-5.9-8.51-12a10.175 10.175 0 0 1-.49-3c0-.25.01-.5.03-.74A9 9 0 0 1 49.02 1z" fill="#ed5565" data-original="#ed5565"/><path d="M35.02 19a3 3 0 0 1 0-6h5.49c1.87 6.1 8.51 12 8.51 12a40.415 40.415 0 0 0 4.06-4.33A27.877 27.877 0 0 1 57.02 35c0 .67-.03 1.34-.08 2H36.02a3 3 0 0 1 0-6h-7a3 3 0 1 1 0-6h-6a3 3 0 1 1 0-6z" fill="#a0d468" data-original="#a0d468"/></svg>