<svg xmlns="http://www.w3.org/2000/svg" viewBox="0 0 128 128" style="enable-background:new 0 0 512 512" xml:space="preserve"><g fill="currentColor"><path d="M.17 33.06a10.05 10.05 0 0 0 18.51 3.3 5.76 5.76 0 0 1 5-2.67h80.7a5.76 5.76 0 0 1 5 2.67 10 10 0 0 0 15.21 2.43 10 10 0 0 0 1.87-13 10 10 0 0 0 1.43-7.3 9.92 9.92 0 0 0-2.42-4.87 10 10 0 0 0-16.09 1.57 5.76 5.76 0 0 1-5 2.67H23.65a5.76 5.76 0 0 1-5-2.67A10 10 0 0 0 3.21 13 10 10 0 0 0 1.6 25.76a10 10 0 0 0-1.43 7.3zm5.43-8.65a6.06 6.06 0 0 1-1.5-5.23 5.91 5.91 0 0 1 1.2-2.62 6.06 6.06 0 0 1 9.95.65 9.77 9.77 0 0 0 8.4 4.62h80.7a9.77 9.77 0 0 0 8.4-4.62 6.06 6.06 0 0 1 9.77-.87 5.93 5.93 0 0 1 1.37 2.83 6.06 6.06 0 0 1-1.49 5.23 2 2 0 0 0 0 2.7 6.06 6.06 0 0 1 1.49 5.23 6 6 0 0 1-1.79 3.26 6.06 6.06 0 0 1-9.35-1.3 9.77 9.77 0 0 0-8.4-4.62h-80.7a9.77 9.77 0 0 0-8.4 4.62 6.06 6.06 0 0 1-9.74.9 5.93 5.93 0 0 1-1.41-2.85 6.07 6.07 0 0 1 1.49-5.23 2 2 0 0 0 0-2.7zM127.83 96.94a10.05 10.05 0 0 0-18.51-3.3 5.76 5.76 0 0 1-5 2.67H23.65a5.76 5.76 0 0 1-5-2.67 10 10 0 0 0-15.26-2.37 10 10 0 0 0-1.79 13 10.05 10.05 0 1 0 17.08 10.6 5.76 5.76 0 0 1 5-2.67h80.7a5.76 5.76 0 0 1 5 2.67 10.09 10.09 0 0 0 9.91 4.81 10 10 0 0 0 7.17-15.41 10 10 0 0 0 1.37-7.33zm-5.43 8.65a6.06 6.06 0 0 1 1.49 5.23 6.05 6.05 0 0 1-11.14 2 9.77 9.77 0 0 0-8.4-4.62h-80.7a9.77 9.77 0 0 0-8.4 4.62 6.06 6.06 0 0 1-10 .64 5.91 5.91 0 0 1-1.18-2.6 6.07 6.07 0 0 1 1.49-5.23 2 2 0 0 0 0-2.7 6.07 6.07 0 0 1-1.46-5.27 6.05 6.05 0 0 1 11.14-2 9.77 9.77 0 0 0 8.4 4.62h80.7a9.77 9.77 0 0 0 8.4-4.62 6.05 6.05 0 0 1 11.14 2 6.06 6.06 0 0 1-1.49 5.23 2 2 0 0 0 .02 2.7zM127.83 56.9a10.08 10.08 0 0 0-8.6-8.11 10.08 10.08 0 0 0-9.91 4.81 5.76 5.76 0 0 1-5 2.67H23.65a5.76 5.76 0 0 1-5-2.67 10 10 0 0 0-15.33-2.3A10 10 0 0 0 1.6 64.19a10 10 0 0 0-1.43 7.3 9.73 9.73 0 0 0 .6 2 10.06 10.06 0 0 0 17.91 1.3 5.76 5.76 0 0 1 5-2.67h80.7a5.76 5.76 0 0 1 5 2.67 10.05 10.05 0 1 0 17.08-10.6 10 10 0 0 0 1.37-7.29zm-5.43 8.65a6.05 6.05 0 0 1 1.25 2.07 6.14 6.14 0 0 1 .24 3.16 6 6 0 0 1-1.7 3.18 6 6 0 0 1-3.46 1.69 6.15 6.15 0 0 1-3-.38 6 6 0 0 1-2.94-2.52 9.39 9.39 0 0 0-3.9-3.57 10.13 10.13 0 0 0-4.5-1.05H23.65a10 10 0 0 0-6.11 2.05 9.21 9.21 0 0 0-2.29 2.56A6 6 0 0 1 12 75.37a6.13 6.13 0 0 1-2.73.26 6.05 6.05 0 0 1-4-2.34 5.9 5.9 0 0 1-1.17-2.52 6.18 6.18 0 0 1 .08-2.6 6 6 0 0 1 1.41-2.63 2 2 0 0 0 0-2.7 6 6 0 0 1-1.36-2.43 6.16 6.16 0 0 1-.13-2.8 6 6 0 0 1 5.16-4.86 6.11 6.11 0 0 1 3.43.55 6 6 0 0 1 2.55 2.35 9.25 9.25 0 0 0 2.67 2.84 10.06 10.06 0 0 0 5.73 1.78h80.7a10.11 10.11 0 0 0 4.88-1.27 9.35 9.35 0 0 0 3.54-3.38 6 6 0 0 1 2.54-2.35 6.12 6.12 0 0 1 3.44-.55 6 6 0 0 1 3.7 1.93 5.93 5.93 0 0 1 1.46 2.93 6.18 6.18 0 0 1-.05 2.5 6 6 0 0 1-1.44 2.73 2 2 0 0 0 0 2.74z" data-original="#000000"/></g></svg>