<svg xmlns="http://www.w3.org/2000/svg" viewBox="0 0 64 64" width="64" height="64" xml:space="preserve"><g data-name="Layer 15" fill="currentColor"><path d="M40.1 33.51a11.78 11.78 0 0 0-16.2 0l-9.77 9.24c-5.6 5.09-1.56 14.82 6 14.44 4.1-.11 7.43-2.21 11.86-2.13 4.59-.08 8 1.77 12.12 2.13 7.43.17 11.27-9.45 5.75-14.44zM56.92 19.93c-3.82-.75-6.74 3.5-7.5 7.16-2.28 11.33 8.7 13.49 11.27 2.5 1.05-4.71-.61-8.96-3.77-9.66zM40.73 26.05c3.8 0 6.89-4.32 6.89-9.62-.38-12.76-13.4-12.76-13.77 0 0 5.3 3.09 9.62 6.88 9.62zM14.58 27.09c-.75-3.66-3.68-7.91-7.5-7.16C0 21.72 3 36.81 9.92 36.85c3.92-.13 5.73-4.68 4.66-9.76zM23.27 26.05c3.79 0 6.88-4.32 6.88-9.62-.37-12.76-13.39-12.76-13.77 0 0 5.3 3.09 9.62 6.89 9.62z" data-original="#000000"/></g></svg>