<svg id="Group_17" data-name="Group 17" xmlns="http://www.w3.org/2000/svg" xmlns:xlink="http://www.w3.org/1999/xlink" width="93.246" height="65.272" viewBox="0 0 93.246 65.272">
  <defs>
    <clipPath id="clip-path">
      <rect id="Rectangle_8" data-name="Rectangle 8" width="93.246" height="65.272" fill="none"/>
    </clipPath>
  </defs>
  <g id="Group_16" data-name="Group 16" clip-path="url(#clip-path)">
    <path id="Path_1313" data-name="Path 1313" d="M26.955,65.272H89.982a3.264,3.264,0,0,0,3.264-3.264V3.264A3.264,3.264,0,0,0,89.982,0H2.449A2.449,2.449,0,0,0,.058,2.974a202.7,202.7,0,0,0,24.1,60.711,3.265,3.265,0,0,0,2.8,1.587" transform="translate(0)"/>
    <path id="Path_1314" data-name="Path 1314" d="M139.931,50.379c.074,0,.121-.032.121-.09,0-.738-.341-1.039-1.145-1.341-.917-.344-1.054-.43-1.376-.786a27.347,27.347,0,0,1-4.867-9.682,5.407,5.407,0,0,1,.2-4.113c.044-.115-.015-.2-.149-.2a62.3,62.3,0,0,1-9.335-.3c-1.634-.232-2.01.033-2.654,1.63a15,15,0,0,1-2.107,3.869c-.813.98-.8,1.229-.429,1.557.391.34-.554.807-.369,1.281.649,1.665.112,2.765.112,4.933a6.423,6.423,0,0,0,1.02,3.095.513.513,0,0,0,.368.143h2.117c.1,0,.15-.047.15-.108,0-.994-1.1-1.143-1.668-1.512a1.977,1.977,0,0,1-.534-1.63c0-2.675,5.112-8.825,9.309-9.806.125-.029.179-.013.139.068a9.508,9.508,0,0,0-1.008,1.866.56.56,0,0,0,.309.748c1,.475,1.293.875,1.294,1.223a.979.979,0,0,0,.623,1.063c.856.391.579.834,1.008,1.421a36.213,36.213,0,0,0,6.108,6.5.521.521,0,0,0,.317.168Zm-26,0c.1,0,.15-.046.15-.1a1.831,1.831,0,0,0-1.311-1.485,3.8,3.8,0,0,1-2.275-2.017,6.98,6.98,0,0,1-.78-3.091c0-1.184.428-2.338.428-3.818,0-.535-.364-.69-.563-.156a4.2,4.2,0,0,1-1.749,2.223c-.655.379-.926.8-.926,1.178a1.311,1.311,0,0,0,.579,1.309.487.487,0,0,1,.206.458c-.05.589.015.8.256,1.025a19.2,19.2,0,0,1,3.355,4.306.379.379,0,0,0,.331.168Zm-.545-31.624a.576.576,0,0,1,.8-.07c2.582,2.039,6.034,4.633,8.844,6.553a.174.174,0,0,0,.161.035,28.085,28.085,0,0,0,3.914-.959,5.856,5.856,0,0,1,2.268-.013.743.743,0,0,1,.543.459,10.819,10.819,0,0,0,.877,1.77c.178.276.259.248.2-.107a11.266,11.266,0,0,0-.921-2.792,1.764,1.764,0,0,1-.443-.084,6.1,6.1,0,0,1-2.466-1.667.2.2,0,0,0-.117-.087,2.092,2.092,0,0,1-1.413-1.339c-.3-1.426.467-2.021.355-2.536-.1-.476.189-.813,1.192-.7a32.989,32.989,0,0,0,3.592.488.2.2,0,0,0,.161-.1,1.977,1.977,0,0,1,1.824-.95c2.719,0,4.342,1.264,4.828,2.536.047.123-.068.209-.166.127a3.9,3.9,0,0,0-1.769-.716c-.431,0-.44.19-.329.34.761,1.022.3,2.252-.681,3.237-.678.677-1.258,2.453.2,2.453a5.354,5.354,0,0,0,2.246-.438c.075-.038.121-.022.091.076-1.307,4.24-2.207,6.451-2.966,7.665a.8.8,0,0,1-.738.406c-5.367,0-12.244-5.851-20.014-12.784a.579.579,0,0,1-.07-.8m19.834.6c.275,0,.367-.08.3-.229-.315-.746-.7-1.039-1-1.039-.413,0-.326.493-.66.582-.136.036-.139.13-.029.232a2.533,2.533,0,0,0,1.381.454M107.6,40.732c-1.065.863-2.043.7-3.837,2.319-1.07.964-1.639,2.439-2.043,5.164-.221,1.488-1.519,2.743-2.113,2.743-.32,0-.5-.226-.5-1.192,0-.692.022-.758.78-1.352a2.727,2.727,0,0,0,.842-1.965A2.091,2.091,0,0,0,100.4,45.2c-.232-.364-.221-.6-.019-.854a.874.874,0,0,0,.149-1.111.8.8,0,0,1,.422-1.053,5.357,5.357,0,0,0,2.787-4.927c0-4.185-.522-5.469.307-7.826.1-.3.065-.411-.238-.453-5.567-.775-8.389-4.118-8.9-8.03-.093-.712.358-.86.681-.313,1.913,3.237,5.514,5.439,8.442,5.439,2.757,0,4.31-.756,6.421-.951a33.318,33.318,0,0,1,7.182.354c.048.007.059.03.043.064-1.617,3.44-.887,4.963,1.688,6.682,1,.669,1.124.94.032,3.251-1.013,2.143-1.338,2.235-2.43,2.134a12.757,12.757,0,0,1-5.235-1.943c-.67-.48-.976-.368-1.125.115a11.471,11.471,0,0,1-3,4.958M135.08,67.637a.6.6,0,0,1-.313.525A9.322,9.322,0,0,1,129.8,69.25c-4.825,0-7.812-2.891-7.812-7.717a7.426,7.426,0,0,1,7.812-7.717,8.511,8.511,0,0,1,4.381,1.028.336.336,0,0,1,.172.29v3.254a.187.187,0,0,1-.3.145,6.714,6.714,0,0,0-4.069-1.374c-2.589,0-4.147,1.735-4.147,4.374,0,2.765,1.709,4.5,4.147,4.5a4.454,4.454,0,0,0,1.471-.2,14.728,14.728,0,0,1,1.179-4.04.449.449,0,0,1,.408-.263h1.744a.3.3,0,0,1,.3.3Zm13-13.266v2.686a.3.3,0,0,1-.3.3h-6.193v2.909H146.5a.3.3,0,0,1,.3.327,14.191,14.191,0,0,1-.487,2.592.3.3,0,0,1-.286.214h-4.433v5.3a.3.3,0,0,1-.3.3h-3.133a.3.3,0,0,1-.3-.3V54.371a.3.3,0,0,1,.3-.3h9.624a.3.3,0,0,1,.3.3M94.352,68.992H91.219a.3.3,0,0,1-.3-.3V54.371a.3.3,0,0,1,.3-.3h3.133a.3.3,0,0,1,.3.3V68.694a.3.3,0,0,1-.3.3m9.383-.231L98.906,61.4a.3.3,0,0,1,0-.329l4.5-6.765a.149.149,0,0,0-.124-.232H99.433a.449.449,0,0,0-.38.211l-3.875,6.239a1.342,1.342,0,0,0,0,1.421l4.28,6.838a.448.448,0,0,0,.379.21h3.771a.149.149,0,0,0,.125-.231m11.822-5.548a.033.033,0,0,0,.037.011.029.029,0,0,0,.019-.031,2.994,2.994,0,0,1-.1-.538V54.371a.3.3,0,0,1,.3-.3h3.021a.3.3,0,0,1,.3.3V68.694a.3.3,0,0,1-.3.3h-2.978a.6.6,0,0,1-.49-.257l-6.1-8.884a.033.033,0,0,0-.037-.011.029.029,0,0,0-.019.031,3,3,0,0,1,.1.538v8.283a.3.3,0,0,1-.3.3h-3.021a.3.3,0,0,1-.3-.3V54.371a.3.3,0,0,1,.3-.3h2.978a.6.6,0,0,1,.49.257c1.531,2.217,6.1,8.884,6.1,8.884" transform="translate(-61.012 -11.18)" fill="#fff"/>
  </g>
</svg>
