<svg xmlns="http://www.w3.org/2000/svg" width="248.875" height="45.914" viewBox="0 0 248.875 45.914">
  <g id="Group_4" data-name="Group 4" transform="translate(-140 -40)">
    <path id="Path_1" data-name="Path 1" d="M36.012.024A15.476,15.476,0,0,1,42.2,1.279a16.154,16.154,0,0,1,8.489,8.5,15.31,15.31,0,0,1,1.264,6.184v8.436a6.436,6.436,0,0,1-.674,2.93A7.983,7.983,0,0,1,49.458,29.7a8.732,8.732,0,0,1-2.58,1.608,7.878,7.878,0,0,1-3.014.586A7.774,7.774,0,0,1,40.9,31.31a7.954,7.954,0,0,1-4.248-3.985,6.7,6.7,0,0,1-.644-2.93,6.466,6.466,0,0,1-.674,2.93A7.975,7.975,0,0,1,33.523,29.7a8.784,8.784,0,0,1-2.584,1.608,7.878,7.878,0,0,1-3.014.586,7.783,7.783,0,0,1-2.961-.586,8.018,8.018,0,0,1-4.248-3.985,6.694,6.694,0,0,1-.641-2.93V7.521a7.255,7.255,0,0,1,.588-2.9,7.406,7.406,0,0,1,1.61-2.4A7.579,7.579,0,0,1,24.641.607a7.347,7.347,0,0,1,2.93-.583,7.056,7.056,0,0,1,3.4.816,15.845,15.845,0,0,1,5.04-.816" transform="translate(166.577 40.032)" fill="#fff"/>
    <path id="Path_2" data-name="Path 2" d="M89.315.024A15.44,15.44,0,0,1,95.5,1.279a16.156,16.156,0,0,1,8.5,8.5,15.384,15.384,0,0,1,1.26,6.184v8.436a6.5,6.5,0,0,1-.674,2.93,8.061,8.061,0,0,1-1.817,2.377,8.822,8.822,0,0,1-2.579,1.608,7.875,7.875,0,0,1-3.012.586,7.72,7.72,0,0,1-2.958-.586,7.963,7.963,0,0,1-4.253-3.985,6.762,6.762,0,0,1-.644-2.93,6.466,6.466,0,0,1-.674,2.93A7.983,7.983,0,0,1,86.824,29.7a8.732,8.732,0,0,1-2.579,1.608,7.881,7.881,0,0,1-3.016.586,7.734,7.734,0,0,1-2.956-.586,7.948,7.948,0,0,1-4.25-3.985,6.663,6.663,0,0,1-.644-2.93V7.521a7.336,7.336,0,0,1,.588-2.9,7.444,7.444,0,0,1,1.61-2.4A7.627,7.627,0,0,1,77.949.607,7.3,7.3,0,0,1,80.877.024a7.075,7.075,0,0,1,3.4.816A15.831,15.831,0,0,1,89.315.024" transform="translate(237.143 40.032)" fill="#fff"/>
    <path id="Path_3" data-name="Path 3" d="M118.226,21.923a23.659,23.659,0,0,1,2.919-.093,4.562,4.562,0,0,0,3.89-3.293,11.846,11.846,0,0,0,.151-2.584,15.878,15.878,0,1,0-15.872,15.877,16.479,16.479,0,0,0,10.021-3.562c1.455-1.211,1.729-3.446.725-4.439s-1.834-1.85-1.834-1.906" transform="translate(263.689 40.1)" fill="#fff"/>
    <path id="Path_4" data-name="Path 4" d="M24.793,21.923a23.627,23.627,0,0,1,2.919-.093A4.567,4.567,0,0,0,31.6,18.537a11.847,11.847,0,0,0,.151-2.584A15.878,15.878,0,1,0,15.874,31.829,16.5,16.5,0,0,0,25.9,28.267c1.455-1.211,1.727-3.446.716-4.439s-1.827-1.85-1.827-1.906" transform="translate(140 40.1)" fill="#fff"/>
    <path id="Path_5" data-name="Path 5" d="M67.876,31.95a7.3,7.3,0,0,1-2.926-.583,7.646,7.646,0,0,1-3.985-3.99,7.184,7.184,0,0,1-.586-2.926V7.579a7.252,7.252,0,0,1,.586-2.935,7.46,7.46,0,0,1,1.613-2.37A7.591,7.591,0,0,1,64.95.663a7.558,7.558,0,0,1,5.856,0,7.71,7.71,0,0,1,2.375,1.61,7.614,7.614,0,0,1,1.613,2.37,7.369,7.369,0,0,1,.583,2.935V24.45a7.3,7.3,0,0,1-.583,2.926,7.639,7.639,0,0,1-3.988,3.99,7.307,7.307,0,0,1-2.93.583" transform="translate(219.934 40.097)" fill="#fff"/>
    <path id="Path_6" data-name="Path 6" d="M72.2,7.676a7.29,7.29,0,0,0-.583-2.935A7.65,7.65,0,0,0,67.628.76a7.585,7.585,0,0,0-5.856,0c-.112.046-.218.1-.325.158A15.53,15.53,0,0,0,56.134,0a15.313,15.313,0,0,0-6.181,1.264,16.106,16.106,0,0,0-8.494,8.494A15.28,15.28,0,0,0,40.2,15.939a15.242,15.242,0,0,0,1.262,6.177,16.087,16.087,0,0,0,8.494,8.5,15.038,15.038,0,0,0,3.061.957c-7.422,3.3-4.808,13.288,2.828,14.248,7.134.89,14.685-4.848,15.9-11.361a71.377,71.377,0,0,0,.455-9.911Z" transform="translate(193.216 40)" fill="#fff"/>
  </g>
</svg>
