<svg id="Group_21" data-name="Group 21" xmlns="http://www.w3.org/2000/svg" xmlns:xlink="http://www.w3.org/1999/xlink" width="158.521" height="38.168" viewBox="0 0 158.521 38.168">
  <defs>
    <clipPath id="clip-path">
      <rect id="Rectangle_10" data-name="Rectangle 10" width="158.52" height="38.168" fill="none"/>
    </clipPath>
  </defs>
  <g id="Group_20" data-name="Group 20" transform="translate(0 0)" clip-path="url(#clip-path)">
    <path id="Path_1589" data-name="Path 1589" d="M37.1,1.07a3.652,3.652,0,0,0-5.166,0l-31,31,.007.006A3.649,3.649,0,0,0,6.1,37.228l.006.007.135-.135L37.1,6.236a3.652,3.652,0,0,0,0-5.166" transform="translate(0 0)" fill="#1a1818"/>
    <path id="Path_1590" data-name="Path 1590" d="M37.1,1.07a3.652,3.652,0,0,0-5.166,0l-31,31,.007.006A3.649,3.649,0,0,0,6.1,37.228l.006.007.135-.135L37.1,6.236a3.652,3.652,0,0,0,0-5.166" transform="translate(0 0)" fill="#1a1818"/>
    <path id="Path_1591" data-name="Path 1591" d="M3.654,0A3.654,3.654,0,0,0,0,3.654V34.5a3.654,3.654,0,0,0,7.308,0V3.654A3.654,3.654,0,0,0,3.654,0" transform="translate(0 0)" fill="#1a1818"/>
    <path id="Path_1592" data-name="Path 1592" d="M26.038,0a3.654,3.654,0,0,0-3.654,3.654V34.5a3.654,3.654,0,0,0,7.308,0V3.654A3.654,3.654,0,0,0,26.038,0" transform="translate(8.479 0)" fill="#1a1818"/>
    <path id="Path_1593" data-name="Path 1593" d="M37.228,32.075l.007-.007-.134-.134h0L6.236,1.07A3.653,3.653,0,0,0,1.07,6.236l31,31,.007-.007a3.648,3.648,0,0,0,5.153-5.153" transform="translate(0 0)" fill="#1a1818"/>
    <path id="Path_1594" data-name="Path 1594" d="M44.41,26.718H39.231V7.394h5.14V8.475A9.688,9.688,0,0,1,49.2,6.929q3.863,0,5.333,2.281T56,16.244V26.718H50.825V16.4a8.7,8.7,0,0,0-.579-3.652,2.328,2.328,0,0,0-2.319-1.179,8.767,8.767,0,0,0-3.053.54l-.465.154Z" transform="translate(14.861 2.625)" fill="#1a1818"/>
    <path id="Path_1595" data-name="Path 1595" d="M60.2,21.828a3.84,3.84,0,0,0,2.609.793q3.592,0,6.416-.232l1.082-.116L70.38,26.1a34.313,34.313,0,0,1-8.04,1.081q-4.368,0-6.338-2.318t-1.97-7.537q0-10.4,8.54-10.4Q71,6.929,71,15.664l-.386,3.595H59.248a3.338,3.338,0,0,0,.947,2.57m5.7-6.512a5.279,5.279,0,0,0-.735-3.226,3.14,3.14,0,0,0-2.57-.909A3.131,3.131,0,0,0,60,12.128a5.346,5.346,0,0,0-.791,3.188Z" transform="translate(20.467 2.625)" fill="#1a1818"/>
    <path id="Path_1596" data-name="Path 1596" d="M67.681,7.266h5.526L76.3,13.257l3.13-5.991h5.526l-5.488,9.47,5.488,9.854H79.43L76.3,20.678,73.208,26.59H67.681l5.295-9.7Z" transform="translate(25.638 2.752)" fill="#1a1818"/>
    <path id="Path_1597" data-name="Path 1597" d="M82.313,1.66h5.179V6.916H82.313Zm0,7.73h5.179V28.714H82.313Z" transform="translate(31.181 0.629)" fill="#1a1818"/>
    <path id="Path_1598" data-name="Path 1598" d="M90.865,9.576q2.048-2.645,6.84-2.647t6.84,2.647q2.05,2.649,2.049,7.44,0,10.165-8.889,10.165T88.816,17.016q0-4.792,2.049-7.44m4,11.808a3.6,3.6,0,0,0,5.681,0,9.176,9.176,0,0,0,.793-4.368,8.931,8.931,0,0,0-.793-4.328,3.659,3.659,0,0,0-5.681,0,8.931,8.931,0,0,0-.793,4.328,9.176,9.176,0,0,0,.793,4.368" transform="translate(33.644 2.625)" fill="#1a1818"/>
    <path id="Path_1599" data-name="Path 1599" d="M118.608,12.214A61.472,61.472,0,0,0,111.9,11.6a5.525,5.525,0,0,0-2.474.347,1.2,1.2,0,0,0-.56,1.1,1.047,1.047,0,0,0,.753,1.042,29.239,29.239,0,0,0,3.865.851,8.5,8.5,0,0,1,4.425,1.837,5.563,5.563,0,0,1,1.315,4.135q0,6.26-7.77,6.261a33.645,33.645,0,0,1-6.183-.7l-1.237-.232.154-4.328a61.561,61.561,0,0,0,6.667.618,5.982,5.982,0,0,0,2.551-.367,1.183,1.183,0,0,0,.677-1.1,1.142,1.142,0,0,0-.716-1.082,18.441,18.441,0,0,0-3.71-.849,9.567,9.567,0,0,1-4.465-1.7q-1.468-1.2-1.468-4.27a5.433,5.433,0,0,1,2.088-4.638,8.713,8.713,0,0,1,5.372-1.565,36.1,36.1,0,0,1,6.223.735l1.275.232Z" transform="translate(39.293 2.636)" fill="#1a1818"/>
  </g>
</svg>
