<svg xmlns="http://www.w3.org/2000/svg" xmlns:xlink="http://www.w3.org/1999/xlink" width="185.581" height="167.938" viewBox="0 0 185.581 167.938">
  <defs>
    <filter id="recent_cases" x="0" y="3.432" width="185.581" height="159.812" filterUnits="userSpaceOnUse">
      <feOffset input="SourceAlpha"/>
      <feGaussianBlur stdDeviation="10" result="blur"/>
      <feFlood flood-opacity="0.8"/>
      <feComposite operator="in" in2="blur"/>
      <feComposite in="SourceGraphic"/>
    </filter>
  </defs>
  <g id="Group_56" data-name="Group 56" transform="translate(-242.811 -494.656)">
    <g transform="matrix(1, 0, 0, 1, 242.81, 494.66)" filter="url(#recent_cases)">
      <text id="recent_cases-2" data-name="recent
cases" transform="translate(91.77 76.92) rotate(-9)" fill="#d8ff01" font-size="36" font-family="Lufga-Light, Lufga" font-weight="300"><tspan x="-56" y="0">recent</tspan><tspan x="-50" y="36">cases</tspan></text>
    </g>
    <path id="Path_1623" data-name="Path 1623" d="M119.112.565C72.919-3.514,21.152,14.275,4.328,61.313-4.207,85.178.158,109.294,15,129.583c14.178,19.381,33.8,35.438,58.381,37.938,49.238,5.008,87.225-35.934,93.253-82.211,2.954-22.706-.021-50.167-17.467-66.8C131.677,1.829,101.61.174,78.9,2.9,54.725,5.8,22.074,15.6,11.731,40.011c-12.558,29.634-11.8,65.714-3.45,96.27.328,1.229,3.709.328,3.366-.9A160.5,160.5,0,0,1,9.014,60.538C11.4,49.056,14.441,36.275,22.843,27.594c9.485-9.785,24.473-15.477,37.33-19.088C83.807,1.857,113.86.984,136.14,12.78c19.716,10.434,27.21,33.454,27.993,54.47,1.69,45.278-26.079,92.952-74.291,98.232C44.6,170.427-1.2,124.164,3.559,78.878,6.095,54.755,20.265,32.818,40.352,19.506,63.085,4.434,91.064.188,117.82,2.555c1.348.119,3.562-1.788,1.292-1.99" transform="translate(253.767 494.656)" fill="#d8ff01"/>
  </g>
</svg>
