<svg id="Group_15" data-name="Group 15" xmlns="http://www.w3.org/2000/svg" xmlns:xlink="http://www.w3.org/1999/xlink" width="130.359" height="48.529" viewBox="0 0 130.359 48.529">
  <defs>
    <clipPath id="clip-path">
      <rect id="Rectangle_7" data-name="Rectangle 7" width="130.359" height="48.529" fill="none"/>
    </clipPath>
  </defs>
  <path id="Path_1302" data-name="Path 1302" d="M16.077.006V16.082H0V32.159H16.077V48.237H32.155V32.159H48.23V16.082H32.155V.006Z" transform="translate(0 0.001)"/>
  <g id="Group_14" data-name="Group 14" transform="translate(0 0)">
    <g id="Group_13" data-name="Group 13" clip-path="url(#clip-path)">
      <path id="Path_1303" data-name="Path 1303" d="M78.826,19.842a7.48,7.48,0,0,0,7.591-7.81c0-4.685-3.21-7.812-7.591-7.812a7.482,7.482,0,0,0-7.589,7.812c0,4.687,3.209,7.81,7.589,7.81m0-13.036c2.679,0,4.67,1.906,4.67,5.226s-1.991,5.222-4.67,5.222-4.667-1.906-4.667-5.222,1.988-5.226,4.667-5.226" transform="translate(9.568 0.567)"/>
      <path id="Path_1304" data-name="Path 1304" d="M98.837,19.677a.388.388,0,0,0,.441.439h1.894a.386.386,0,0,0,.437-.439V.441A.388.388,0,0,0,101.173,0H99.23a.39.39,0,0,0-.441.441V7.206A5.431,5.431,0,0,0,93.97,4.786c-4.18,0-7.151,3.175-7.151,7.861,0,4.638,2.922,7.761,7.053,7.761a5.515,5.515,0,0,0,4.965-2.57ZM94.215,17.82c-2.675,0-4.474-1.9-4.474-5.222s1.8-5.226,4.474-5.226,4.67,1.906,4.67,5.226-1.992,5.222-4.67,5.222" transform="translate(11.661 0)"/>
      <path id="Path_1305" data-name="Path 1305" d="M99.963,24.449H97.728a.388.388,0,0,0-.439.441v2.244a.383.383,0,0,0,.439.434h2.235a.383.383,0,0,0,.439-.434V24.89a.388.388,0,0,0-.439-.441" transform="translate(13.067 3.284)"/>
      <path id="Path_1306" data-name="Path 1306" d="M99.8,29.267H97.858a.39.39,0,0,0-.441.441V43.864a.391.391,0,0,0,.441.441H99.8a.389.389,0,0,0,.436-.441V29.708a.388.388,0,0,0-.436-.441" transform="translate(13.085 3.931)"/>
      <path id="Path_1307" data-name="Path 1307" d="M57.13,20.117h1.993a.39.39,0,0,0,.441-.44V12.5h3.308l5.2,7.274a.791.791,0,0,0,.682.343h2.336c.438,0,.487-.394.29-.637l-5.4-7.469c3.11-.682,4.861-2.831,4.861-5.709,0-4.3-3.454-6.3-7.1-6.3H57.13a.39.39,0,0,0-.438.441V19.677a.388.388,0,0,0,.438.44M59.564,2.782H63.5c2.822,0,4.38,1.32,4.38,3.519S66.323,9.815,63.5,9.815H59.564Z" transform="translate(7.615 0)"/>
      <path id="Path_1308" data-name="Path 1308" d="M94.741,29.267H92.794a.386.386,0,0,0-.436.441v8.106c0,2.438-1.413,4.145-3.841,4.145-2.239,0-3.7-1.462-3.7-4.145V29.708a.387.387,0,0,0-.438-.441H82.43a.387.387,0,0,0-.434.441V38.3c0,3.708,2.48,6.3,6.032,6.3A4.749,4.749,0,0,0,92.4,42.3v1.562a.389.389,0,0,0,.438.441h1.9a.39.39,0,0,0,.439-.441V29.708a.389.389,0,0,0-.439-.441" transform="translate(11.013 3.931)"/>
      <path id="Path_1309" data-name="Path 1309" d="M109.659,4.219c-3.844,0-6.957,3.127-6.957,7.813s3.113,7.81,7.348,7.81a7.28,7.28,0,0,0,5.88-2.685.409.409,0,0,0-.049-.634L114.767,15.4a.414.414,0,0,0-.635,0,5.457,5.457,0,0,1-4.032,1.9,4.432,4.432,0,0,1-4.491-4.1h10.467c.441,0,.489-.339.489-.974,0-4.98-2.77-8.008-6.906-8.008m-4.065,6.64c.374-2.9,2.162-4.1,4.065-4.1,2.144,0,3.8,1.513,4.039,4.1Z" transform="translate(13.794 0.567)"/>
      <path id="Path_1310" data-name="Path 1310" d="M109.754,35.6c-1.85-.539-3.5-1.028-3.5-2.395,0-1.022.972-1.66,2.866-1.66a7.38,7.38,0,0,1,3.8,1.072.455.455,0,0,0,.635-.191l.724-1.469a.435.435,0,0,0-.193-.631,11.454,11.454,0,0,0-5.108-1.321c-3.209,0-5.542,1.61-5.542,4.4,0,2.976,2.723,3.857,5.2,4.586,1.993.586,3.359.979,3.359,2.246,0,1.028-.83,1.855-3.118,1.855a8.919,8.919,0,0,1-4.668-1.461c-.293-.147-.487-.1-.632.194l-.728,1.464a.464.464,0,0,0,.094.586,11.02,11.02,0,0,0,6.129,1.757c3.453,0,5.743-1.708,5.743-4.542,0-3.075-2.675-3.808-5.059-4.488" transform="translate(13.805 3.897)"/>
      <path id="Path_1311" data-name="Path 1311" d="M63.744,33.676l7.785-8.246c.2-.244.145-.635-.294-.635H68.9a.879.879,0,0,0-.727.341l-8.609,9.138V25.235a.39.39,0,0,0-.44-.441H57.13a.388.388,0,0,0-.437.441v19.23a.388.388,0,0,0,.437.44h1.994a.389.389,0,0,0,.44-.44V37.938l2.136-2.26,6.814,8.884a.874.874,0,0,0,.727.343h2.337c.438,0,.487-.391.292-.637Z" transform="translate(7.615 3.331)"/>
      <path id="Path_1312" data-name="Path 1312" d="M80.35,29.008A5.7,5.7,0,0,0,74.9,32.815V29.742a.388.388,0,0,0-.437-.44h-1.9a.385.385,0,0,0-.434.44V43.9a.386.386,0,0,0,.434.441h1.949a.389.389,0,0,0,.438-.441V38.481c0-3.955,2.14-6.4,5.4-6.4a.388.388,0,0,0,.437-.442V29.448a.387.387,0,0,0-.437-.44" transform="translate(9.688 3.897)"/>
    </g>
  </g>
</svg>
