<svg xmlns="http://www.w3.org/2000/svg" xmlns:xlink="http://www.w3.org/1999/xlink" width="142.633" height="60.124" viewBox="0 0 142.633 60.124">
  <defs>
    <clipPath id="clip-path">
      <rect id="Rectangle_4" data-name="Rectangle 4" width="141.648" height="57.661" fill="none"/>
    </clipPath>
  </defs>
  <g id="Group_8" data-name="Group 8" transform="matrix(-1, 0.017, -0.017, -1, 142.633, 57.652)">
    <g id="Group_7" data-name="Group 7" transform="translate(0 0)" clip-path="url(#clip-path)">
      <path id="Path_9" data-name="Path 9" d="M39.276,57.574c17.668-.044,35.418-.17,52.943-3.479a121.763,121.763,0,0,0,25.408-7.577A92.791,92.791,0,0,0,129.6,40.456c2.851-1.743,5.875-4.124,7.522-7.78,4.491-9.976-6.737-17.293-12.164-20.28-8.048-4.43-16.879-6.49-25.442-8.34a176.713,176.713,0,0,0-56.275-3C34.372,2.013,25.268,3.2,16.7,6.525a35.11,35.11,0,0,0-11.177,6.47C2.831,15.446.187,19.079.011,23.626-.4,34.175,11.068,37.963,16.941,39.783c9.038,2.8,18.436,3.98,27.663,5.129,18.473,2.3,37.344,3.438,55.856,1.268a101.433,101.433,0,0,0,25.723-6.2,64.314,64.314,0,0,0,11.959-5.908,7.438,7.438,0,0,0,3.273-3.909,6.669,6.669,0,0,0-1.253-5.757,21.663,21.663,0,0,0-5.051-4.693,43.978,43.978,0,0,0-5.334-3.382,64.592,64.592,0,0,0-12.128-4.84,233.47,233.47,0,0,0-27.213-6.3A258.375,258.375,0,0,0,33.477,1.6q-6.939.332-13.862,1.044c-.49.051-1.468.222-1.733.874-.253.625.216.809.657.765a255.679,255.679,0,0,1,53.937.193A260.521,260.521,0,0,1,99.03,8.8c8.273,1.792,16.7,3.639,24.684,7.1a43.638,43.638,0,0,1,10.854,6.551c1.556,1.3,3.416,2.832,4.18,5.152a4.764,4.764,0,0,1-2,5.65,55.038,55.038,0,0,1-11.511,5.624,87.6,87.6,0,0,1-12.158,3.693c-16.927,3.855-34.4,3.474-51.491,2.238q-13.694-.989-27.313-3.247c-8.352-1.385-17.2-2.66-24.9-7.464C6.434,32.262,3.293,29.273,2.7,24.755,2.067,19.912,4.746,15.867,7.562,13.3A31.536,31.536,0,0,1,18.768,7.227,79.913,79.913,0,0,1,31.32,4.221a173.392,173.392,0,0,1,53.189-.91A169.471,169.471,0,0,1,110.545,8.9a64.385,64.385,0,0,1,11.68,4.637,33.328,33.328,0,0,1,10.244,7.827c2.667,3.205,4.1,7.921,1.891,12.187-1.944,3.761-5.362,5.705-8.431,7.4a104.629,104.629,0,0,1-23.67,9.417c-16.352,4.355-33.092,5.256-49.73,5.489-4.06.057-8.117.071-12.177.082-.477,0-1.479.25-1.732.873-.264.654.226.766.657.765" transform="translate(0 0.017)" fill="#d8ff01"/>
    </g>
  </g>
</svg>
