<svg width="150" viewBox="0 0 295 60" fill="none" xmlns="http://www.w3.org/2000/svg"><path fill-rule="evenodd" clip-rule="evenodd" d="M211.283 16.652c6.984 0 10.825 1.716 12.919 5.06 1.841 2.943 1.918 6.303 1.921 11.43v26.431h-7.332l-1.834-6.055c-.643 2.96-2.515 5.616-6.287 6.482h-5.635c-4.926-1.078-8.417-5.13-8.417-12.536 0-4.247 1.135-8.042 4.103-10.572 3.928-3.344 10.038-3.433 15.451-3.433l-.001-2.028c-.003-2.075-.049-3.478-.697-4.57-.874-1.445-2.706-2.168-5.763-2.168-4.626 0-9.514 1.807-9.514 1.807l-.524.18v-8.312s4.801-1.716 11.61-1.716zm73.228 0c4.801 0 8.206 1.263 8.206 1.263v8.495l-.523-.27s-3.93-1.627-7.421-1.627c-3.23 0-4.713 1.355-4.713 3.434 0 3.343 4.276 4.788 8.117 7.59 3.317 2.44 6.11 5.783 6.023 11.656 0 7.681-4.888 12.742-15.101 12.742-5.412 0-8.817-1.447-8.817-1.447v-8.403l.524.18s4.278 1.808 8.118 1.808c3.667 0 5.237-1.717 5.237-4.066 0-3.886-4.451-5.06-8.641-8.313-3.143-2.44-5.5-5.603-5.5-10.753 0-7.862 5.412-12.29 14.491-12.29zM242.955 0v21.777c1.135-3.613 4.016-6.054 8.992-6.054 4.538 0 8.03 1.988 10.3 5.513 2.444 3.704 3.231 8.944 3.231 15.902 0 8.495-1.223 14.006-3.929 17.621-2.357 3.163-6.023 4.88-10.475 4.88-5.063 0-8.293-2.26-9.777-6.416l-2.269 5.602h-6.112V0h10.039zm-66.338 0v49.52h15.188v9.396h-25.838V0h10.65zm39.555 39.965c-3.579 0-5.936.09-7.595 1.355-1.309 1.084-1.746 2.71-1.746 5.06 0 4.067 1.398 5.603 4.016 5.603 2.095 0 3.84-.994 4.627-2.802.786-1.627.698-3.795.698-5.151v-4.065zm32.719-15.747c-2.182 0-3.578 1.083-4.364 2.439-1.366 2.209-1.647 6.059-1.658 10.875l-.001.33c0 6.054.437 9.306 1.659 11.385.786 1.356 2.182 2.44 4.277 2.44 2.183 0 3.579-1.084 4.365-2.44 1.222-2.078 1.659-5.331 1.659-11.385 0-5.964-.524-9.218-1.659-11.296-.873-1.536-2.357-2.348-4.278-2.348z" fill="#5AB237"/><path fill-rule="evenodd" clip-rule="evenodd" d="M16.875 0c5.423 0 10.058 1.442 10.058 1.442v9.105l-.525-.18s-4.547-1.622-8.483-1.622c-4.46 0-6.822 2.164-6.822 5.86 0 5.59 5.16 7.843 10.058 11.81 4.547 3.607 8.045 7.934 8.045 16.047 0 11.45-6.908 16.95-17.927 16.95C5.156 59.412.697 57.7.697 57.7v-9.286l.35.27s5.16 2.074 9.532 2.074c4.81 0 7.608-2.525 7.608-6.852 0-5.86-5.16-8.566-10.67-13.073C3.695 27.61.13 24.028.085 16.201v-.307C.144 5.8 6 0 16.875 0zm142.033 16.67v10.82s-2.187-.451-4.197-.451c-6.068 0-6.206 4.391-6.21 7.45v24.916h-10.232V17.21h7.609l2.185 7.484c1.313-6.22 4.81-7.934 10.145-8.024h.7zM48.87 15.84c5.598 0 9.533 2.072 12.068 5.948 2.712 4.509 2.8 10.73 2.8 19.383h-20.29c0 6.762 2.536 10.369 8.57 10.369 4.199 0 9.096-1.713 9.096-1.713l.525-.18v8.205s-5.073 1.532-10.932 1.532c-6.384 0-10.67-1.804-13.38-5.14-2.974-3.696-4.11-9.285-4.11-16.137 0-12.802 3.847-22.268 15.653-22.268zm68.689 0c5.597 0 9.621 2.072 11.982 5.948 2.71 4.509 2.798 10.73 2.798 19.383H112.05c0 6.762 2.624 10.369 8.658 10.369 4.198 0 9.096-1.713 9.096-1.713l.523-.18v8.205s-5.071 1.532-10.931 1.532c-6.385 0-10.669-1.804-13.38-5.14-2.973-3.696-4.111-9.285-4.111-16.137 0-12.802 3.848-22.268 15.654-22.268zM79.638.055v58.692H69.58V.056h10.057zm16.97 0v58.692H86.55V.056h10.057zm-48 23.266c-3.848 0-5.16 3.335-5.335 10.728h10.232c0-7.483-1.05-10.728-4.897-10.728zm68.777 0c-3.848 0-5.073 3.335-5.335 10.728h10.232c0-7.483-1.05-10.728-4.897-10.728z" fill="#000"/></svg>