<svg xmlns="http://www.w3.org/2000/svg" width="138" height="25.948" viewBox="0 0 138 25.948">
  <g id="Group_49" data-name="Group 49" transform="translate(-419.005 -1428.191)">
    <path id="Path_1651" data-name="Path 1651" d="M193.061,85.3a1.422,1.422,0,0,1-1.411,1.432H181.371A1.422,1.422,0,0,1,179.96,85.3V62.432A1.422,1.422,0,0,1,181.371,61h10.278a1.422,1.422,0,0,1,1.411,1.432Z" transform="translate(297.663 1367.247)" fill="#fff"/>
    <path id="Path_1664" data-name="Path 1664" d="M261.467,61h-23.7a1.432,1.432,0,0,0-1.432,1.432V85.3a1.432,1.432,0,0,0,1.432,1.432h.628l24.505-24.416A1.432,1.432,0,0,0,261.467,61" transform="translate(260.644 1367.247)" fill="#fff"/>
    <path id="Path_1665" data-name="Path 1665" d="M264.686,102.37,253.12,113.895h19.365a1.435,1.435,0,0,0,1.432-1.432v-.824Z" transform="translate(249.627 1340.036)" fill="#fff"/>
    <path id="Path_1666" data-name="Path 1666" d="M10.172,61l-.343.261a1.422,1.422,0,0,0-.279,1.991h0l.869,1.181,15.33,20.673v-.086A3.523,3.523,0,0,0,31.68,85v.1L45.595,61Z" transform="translate(409.741 1367.248)" fill="#fff"/>
    <path id="Path_1668" data-name="Path 1668" d="M123,61.261,122.652,61h-14.08l-.622,1.075L99.07,77.4l5.718,7.713v-.086a3.523,3.523,0,0,0,5.931-.021v.1l11.865-20.525L116.4,75.265l6.92-11.981a1.528,1.528,0,0,0-.316-2.023" transform="translate(350.775 1367.248)" fill="#fff"/>
    <path id="Path_1669" data-name="Path 1669" d="M338.11,60.84a12.974,12.974,0,0,0,0,25.948h.076V60.843Z" transform="translate(202.339 1367.351)" fill="#fff"/>
    <path id="Path_1670" data-name="Path 1670" d="M386.458,73.82a12.974,12.974,0,0,0-12.9-12.97V86.794a12.971,12.971,0,0,0,12.9-12.97" transform="translate(170.547 1367.345)" fill="#fff"/>
  </g>
</svg>
