<svg xmlns="http://www.w3.org/2000/svg" viewBox="0 0 512 512" style="enable-background:new 0 0 512 512" xml:space="preserve"><path d="M498.097 374.71c-11.809-10.966-27.471-15.114-45.297-11.992-7.298 1.278-13.536 3.541-17.651 5.307l-51.281-51.283a7.514 7.514 0 0 0-10.627 10.626l55.035 55.036c2.374 2.373 6.049 2.874 8.982 1.245.079-.045 8.076-4.444 18.537-6.198 13.026-2.182 23.816.6 32.076 8.271 8.013 7.44 11.011 17.419 7.826 26.042-4.165 11.275-17.8 18.198-37.409 18.995-14.833.602-26.925 12.694-27.529 27.528-.796 19.609-7.719 33.244-18.994 37.409-8.624 3.187-18.602.187-26.043-7.825-7.671-8.262-10.455-19.053-8.271-32.076 1.754-10.461 6.154-18.458 6.189-18.52a7.515 7.515 0 0 0-1.235-8.998l-115.779-115.78 45.871-45.871 39.49 39.49c3.056 3.055 8.216 2.851 11.026-.431 2.518-2.941 2.336-7.459-.399-10.195L323.123 256l112.025-112.025c4.115 1.766 10.353 4.029 17.651 5.307 17.824 3.122 33.488-1.026 45.297-11.992 12.542-11.646 17.024-27.841 11.696-42.263-6.372-17.248-24.923-27.747-50.895-28.802-7.072-.287-12.836-6.052-13.124-13.124-1.056-25.972-11.553-44.523-28.802-50.896-14.42-5.327-30.617-.846-42.263 11.697-20.815 22.416-11.75 51.254-6.695 62.959L256 188.876l-61.31-61.31a7.514 7.514 0 0 0-10.627 10.626l61.31 61.31-45.871 45.871L83.724 129.595c-2.374-2.373-6.05-2.873-8.982-1.244-.079.045-8.076 4.444-18.537 6.198-13.022 2.185-23.815-.599-32.076-8.271-8.013-7.44-11.011-17.419-7.826-26.042 4.165-11.275 17.8-18.198 37.409-18.995 14.833-.602 26.925-12.694 27.529-27.528.796-19.609 7.719-33.244 18.994-37.409 8.623-3.187 18.602-.187 26.043 7.826 7.671 8.261 10.455 19.053 8.271 32.076-1.754 10.461-6.154 18.458-6.189 18.52a7.515 7.515 0 0 0 1.235 8.998l33.217 33.217a7.514 7.514 0 0 0 10.627-10.626l-29.464-29.464c1.766-4.115 4.029-10.353 5.308-17.651 3.121-17.824-1.025-33.487-11.992-45.297C125.644 1.36 109.447-3.121 95.027 2.206c-8.16 3.015-27.303 14.009-28.802 50.896-.288 7.071-6.052 12.836-13.124 13.124-36.885 1.498-47.88 20.64-50.894 28.801-5.328 14.421-.846 30.615 11.696 42.261 11.809 10.966 27.472 15.113 45.297 11.992 7.299-1.278 13.536-3.541 17.651-5.307l112.025 112.025-38.365 38.365a7.514 7.514 0 0 0 10.627 10.626L382.405 83.723a7.516 7.516 0 0 0 1.235-8.998c-.043-.076-4.328-7.886-6.12-18.117-2.312-13.201.447-24.129 8.202-32.479 7.44-8.014 17.423-11.012 26.043-7.826 11.275 4.165 18.197 17.8 18.994 37.409.604 14.834 12.696 26.926 27.529 27.528 19.609.797 33.245 7.72 37.409 18.995 3.185 8.623.187 18.602-7.826 26.042-20.119 18.685-49.378 2.76-50.597 2.083a7.514 7.514 0 0 0-8.999 1.235l-298.68 298.681c-2.372 2.373-2.874 6.049-1.243 8.982.687 1.235 16.611 30.492-2.073 50.613-7.44 8.013-17.421 11.013-26.043 7.825-11.275-4.165-18.197-17.8-18.994-37.409-.604-14.834-12.696-26.926-27.529-27.528-19.609-.797-33.244-7.72-37.409-18.995-3.185-8.623-.187-18.602 7.826-26.042 20.119-18.684 49.377-2.76 50.597-2.082a7.515 7.515 0 0 0 8.999-1.235l56.161-56.161a7.514 7.514 0 0 0-10.627-10.626l-52.408 52.408c-4.115-1.766-10.353-4.029-17.651-5.307-17.825-3.122-33.488 1.026-45.297 11.992C1.361 386.356-3.121 402.55 2.207 416.972c6.372 17.248 24.923 27.747 50.895 28.802 7.072.287 12.836 6.052 13.124 13.124 1.056 25.972 11.553 44.523 28.802 50.896a35.456 35.456 0 0 0 12.324 2.207c10.764 0 21.535-4.854 29.939-13.903 20.814-22.417 11.75-51.255 6.695-62.959L256 323.123l112.026 112.025c-1.766 4.116-4.029 10.353-5.308 17.651-3.121 17.824 1.025 33.487 11.992 45.297 8.404 9.05 19.174 13.903 29.939 13.903 4.154 0 8.308-.724 12.324-2.207 8.16-3.015 27.303-14.009 28.802-50.895.288-7.072 6.052-12.836 13.124-13.124 36.887-1.499 47.881-20.641 50.895-28.802 5.327-14.421.845-30.614-11.697-42.261z" fill="currentColor" data-original="#000000"/></svg>