<svg xmlns="http://www.w3.org/2000/svg" width="397.318" height="559.5" viewBox="0 0 397.318 559.5"><path d="m1.334 109.332.062 5c.035 2.75 8.002 93.8 17.705 202.334L36.744 514l79.295 22.201c43.612 12.21 80.195 22.263 81.295 22.34 1.1.077 38.166-9.874 82.369-22.113 70.87-19.623 80.438-22.579 80.945-25.008.707-3.384 35.413-394.9 35.377-399.088l-.025-3H198.666Z" style="fill:#fff;stroke-width:1.33333337"/><path d="m116.667 537.53-80-22.362-1.046-5.917C34.691 503.99 0 116.516 0 111.397c0-1.853 20.256-2.064 198.667-2.064 188.323 0 198.666.122 198.651 2.334-.063 9.553-35.972 402.158-36.854 402.94-1.115.987-155.957 44.125-161.13 44.89-1.467.217-38.667-9.669-82.667-21.968zm132.444-79.014c26.889-7.416 49.277-13.866 49.751-14.333.474-.467 3.621-32.35 6.992-70.85 3.372-38.5 6.47-72.55 6.887-75.666l.756-5.667H197.333v49.333h62.718l-.624 3c-.343 1.65-1.677 15.83-2.964 31.51-1.363 16.615-2.98 29.15-3.875 30.045-.844.844-13.622 4.756-28.395 8.694l-26.86 7.16v25.129c0 17.151.459 25.129 1.445 25.129.794 0 23.444-6.068 50.333-13.484zM312.732 261c-.881-6.533-8.732-94.163-8.732-97.467 0-2.007-4.616-2.2-52.667-2.2h-52.666v51.588l23.666.912c13.017.502 26.716 1.265 30.442 1.697l6.775.784 1.645 20.176c.905 11.097 1.982 22.427 2.395 25.177l.75 5h49.157z" style="fill:#eaebec;stroke-width:1.33333337"/><path d="M116.039 536.201 36.744 514 19.1 316.667C9.398 208.133 1.431 117.083 1.396 114.333l-.063-5H396l.026 3c.035 4.19-34.671 395.704-35.378 399.088-.508 2.43-10.075 5.385-80.945 25.008-44.203 12.24-81.27 22.19-82.37 22.113-1.1-.077-37.682-10.13-81.294-22.34zM249.17 459.46c27.411-7.62 50.227-14.485 50.703-15.254.475-.77 3.75-34.28 7.276-74.469 3.527-40.188 6.702-74.12 7.055-75.403.606-2.204-4.058-2.333-84.514-2.333h-85.156l3.626-38.333c1.994-21.084 3.674-38.388 3.732-38.455.059-.067 12.557-.465 27.774-.886 24.95-.69 76.404 1.301 78.126 3.022.643.643 4.874 42.15 4.874 47.817 0 2.794.377 2.835 25.836 2.835h25.836l-.609-5.667c-.335-3.116-2.523-27.266-4.863-53.666l-4.255-48-99.64-.342c-79.268-.272-99.64 0-99.65 1.333-.007.922-.587 6.775-1.29 13.009-1.704 15.083-14.699 160.822-14.699 164.847v3.153h169.568l-.756 5c-.415 2.75-1.733 16.7-2.928 31-1.196 14.3-2.558 26.37-3.029 26.82-1.242 1.193-51.119 14.518-54.23 14.488-1.443-.014-14.325-3.228-28.625-7.142l-26-7.117-.953-11.192A1858.249 1858.249 0 0 0 140.607 375l-.82-8.333H89.334l.056 5c.105 9.35 6.168 72.334 7.049 73.215 1.018 1.018 97.912 28.255 100.895 28.362 1.1.039 24.427-6.164 51.838-13.785z" style="fill:#f0be25;stroke-width:1.33333337"/><path d="M116.039 536.201 36.744 514 19.1 316.667C9.398 208.133 1.431 117.083 1.396 114.333l-.063-5H396l.026 3c.035 4.19-34.671 395.704-35.378 399.088-.508 2.43-10.075 5.385-80.945 25.008-44.203 12.24-81.27 22.19-82.37 22.113-1.1-.077-37.682-10.13-81.294-22.34zm147.874-29.7c34.881-9.626 64.076-18.176 64.876-19 1.247-1.285 31.372-331.455 31.251-342.501l-.04-3.667H198.667V160H152c-36.439 0-46.67.365-46.678 1.667-.007.916-.587 6.766-1.29 13-1.704 15.083-14.699 160.822-14.699 164.847v3.153h109.334v38.666c0 30.058-.371 38.661-1.667 38.642-.917-.014-13.367-3.228-27.667-7.142l-26-7.117-.953-11.192A1858.249 1858.249 0 0 0 140.607 375l-.82-8.333H89.334l.056 5c.16 14.301 6.347 72.679 7.798 73.576.882.545 24.075 7.21 51.541 14.81l49.939 13.818v25.065c0 13.785.41 25.064.913 25.064.502 0 29.452-7.875 64.333-17.5zM148.02 254.024c1.917-20.886 3.747-38.211 4.066-38.5.32-.29 10.93-.812 23.58-1.162l23-.636V292h-54.131Z" style="fill:#e4a126;stroke-width:1.33333337"/><path d="M126.667 62V49.333h36V0H188v74.667h-61.333ZM200 64.667v-10h16.667c9.166 0 16.666-.34 16.666-.753 0-.415-7.5-8.882-16.666-18.817L200 17.034V0h69.333v19.918l-16.274.374-16.275.375 16.942 18.244 16.94 18.244v17.512H200Z" style="fill:#0e0e0f;stroke-width:1.33333337"/></svg>