<svg xmlns="http://www.w3.org/2000/svg" version="1.1" xmlns:xlink="http://www.w3.org/1999/xlink" xmlns:svgjs="http://svgjs.com/svgjs" x="0" y="0" viewBox="0 0 128 128" style="enable-background:new 0 0 512 512" xml:space="preserve"><g><path d="m23.65 110.16h80.7a7.75 7.75 0 0 1 6.69 3.64 8.05 8.05 0 1 0 12.84-9.57 8 8 0 1 0 -12.88-9.56 7.75 7.75 0 0 1 -6.69 3.64h-80.66a7.75 7.75 0 0 1 -6.65-3.64 8.05 8.05 0 1 0 -12.84 9.57 8 8 0 1 0 12.84 9.57 7.75 7.75 0 0 1 6.65-3.65z" fill="#ffffff" data-original="#ffffff"/><path d="m23.65 69.93h80.7a7.75 7.75 0 0 1 6.65 3.64 8.05 8.05 0 1 0 12.88-9.57 8 8 0 1 0 -12.88-9.57 7.75 7.75 0 0 1 -6.69 3.64h-80.66a7.75 7.75 0 0 1 -6.65-3.64 8.05 8.05 0 1 0 -12.88 9.57 8 8 0 1 0 12.88 9.57 7.75 7.75 0 0 1 6.65-3.64z" fill="#ffffff" data-original="#ffffff"/><path d="m23.65 31.69h80.7a7.75 7.75 0 0 1 6.65 3.64 8.05 8.05 0 1 0 12.84-9.57 8 8 0 1 0 -12.84-9.57 7.75 7.75 0 0 1 -6.69 3.64h-80.66a7.75 7.75 0 0 1 -6.65-3.64 8.05 8.05 0 1 0 -12.88 9.57 8 8 0 1 0 12.88 9.57 7.75 7.75 0 0 1 6.65-3.64z" fill="#ffffff" data-original="#ffffff"/><g fill="#2b2b2b"><path d="m118 41.25a10.08 10.08 0 0 1 -8.65-4.89 5.76 5.76 0 0 0 -5-2.67 2 2 0 0 1 0-4 9.77 9.77 0 0 1 8.4 4.62 6.05 6.05 0 1 0 9.65-7.19 2 2 0 0 1 0-2.7 6 6 0 1 0 -9.65-7.19 9.77 9.77 0 0 1 -8.4 4.62h-80.7a9.77 9.77 0 0 1 -8.4-4.62 6 6 0 0 0 -6-2.9l-.56.1a2 2 0 1 1 -.87-3.9c.31-.07.62-.12.93-.16a10.09 10.09 0 0 1 9.91 4.81 5.76 5.76 0 0 0 5 2.67h80.7a5.76 5.76 0 0 0 5-2.67 10.05 10.05 0 1 1 17.08 10.6 10 10 0 0 1 -8.44 15.47z" fill="#2b2b2b" data-original="#2b2b2b"/><path d="m10 41.25a10 10 0 0 1 -8.4-15.49 10 10 0 0 1 -1.43-7.3 9.81 9.81 0 0 1 .43-1.58 2 2 0 0 1 3.76 1.37 5.72 5.72 0 0 0 -.25.94 6.07 6.07 0 0 0 1.49 5.22 2 2 0 0 1 0 2.7 6 6 0 1 0 9.65 7.19 9.77 9.77 0 0 1 8.4-4.62h73.43a2 2 0 0 1 0 4h-73.43a5.76 5.76 0 0 0 -5 2.67 10.08 10.08 0 0 1 -8.65 4.9z" fill="#2b2b2b" data-original="#2b2b2b"/><path d="m10 119.73a10.18 10.18 0 0 1 -1.26-.08 10 10 0 0 1 -7.14-15.41 10 10 0 0 1 -1.46-3.77 10.1 10.1 0 0 1 -.14-1.26 2 2 0 0 1 4-.21 6 6 0 0 0 1.59 3.84 2 2 0 0 1 0 2.7 6 6 0 1 0 9.65 7.19 9.77 9.77 0 0 1 8.4-4.62h44.89a2 2 0 0 1 0 4h-44.88a5.76 5.76 0 0 0 -5 2.67 10.08 10.08 0 0 1 -8.65 4.95z" fill="#2b2b2b" data-original="#2b2b2b"/><path d="m118 119.73a10.08 10.08 0 0 1 -8.65-4.89 5.76 5.76 0 0 0 -5-2.67h-28.35a2 2 0 0 1 0-4h28.35a9.77 9.77 0 0 1 8.4 4.62 6.05 6.05 0 1 0 9.65-7.19 2 2 0 0 1 0-2.7 6 6 0 0 0 -3.67-10.09 6 6 0 0 0 -6 2.9 9.77 9.77 0 0 1 -8.4 4.62h-80.68a9.77 9.77 0 0 1 -8.4-4.62 6 6 0 0 0 -9.19-1.44 2 2 0 1 1 -2.64-3 10 10 0 0 1 5.35-2.42 10.1 10.1 0 0 1 9.91 4.81 5.76 5.76 0 0 0 5 2.67h80.7a5.76 5.76 0 0 0 5-2.67 10.05 10.05 0 1 1 17.08 10.6 10 10 0 0 1 -8.46 15.47z" fill="#2b2b2b" data-original="#2b2b2b"/><path d="m118 79.49a10.08 10.08 0 0 1 -8.65-4.89 5.76 5.76 0 0 0 -5-2.67h-13.72a2 2 0 0 1 0-4h13.73a9.77 9.77 0 0 1 8.4 4.62 6.05 6.05 0 1 0 9.65-7.19 2 2 0 0 1 0-2.7 6 6 0 1 0 -9.65-7.19 9.77 9.77 0 0 1 -8.4 4.62h-80.71a9.77 9.77 0 0 1 -8.4-4.62 6 6 0 0 0 -6-2.9 5.92 5.92 0 0 0 -1.41.36 2 2 0 0 1 -1.44-3.73 9.87 9.87 0 0 1 2.38-.6 10.08 10.08 0 0 1 9.91 4.81 5.76 5.76 0 0 0 5 2.67h80.7a5.76 5.76 0 0 0 5-2.67 10.05 10.05 0 1 1 17.01 10.59 10 10 0 0 1 -8.4 15.49z" fill="#2b2b2b" data-original="#2b2b2b"/><path d="m10 79.49a10 10 0 0 1 -8.4-15.49 10 10 0 0 1 -1.43-7.3 2 2 0 1 1 3.94.72 6.07 6.07 0 0 0 1.49 5.23 2 2 0 0 1 0 2.7 6 6 0 1 0 9.65 7.19 9.77 9.77 0 0 1 8.4-4.62h59.48a2 2 0 0 1 0 4h-59.48a5.76 5.76 0 0 0 -5 2.67 10.08 10.08 0 0 1 -8.65 4.9z" fill="#2b2b2b" data-original="#2b2b2b"/></g></g></svg>