<svg width="56" height="56" viewBox="0 0 56 56" fill="none" xmlns="http://www.w3.org/2000/svg"><mask id="a" mask-type="alpha" maskUnits="userSpaceOnUse" x="15" y="38" width="20" height="12"><path fill-rule="evenodd" clip-rule="evenodd" d="M34.067 49.333h-16.04a2.16 2.16 0 0 1-1.722-3.466l7.01-6.934 10.752 10.4Z" fill="#fff"/></mask><g mask="url(#a)"><path fill-rule="evenodd" clip-rule="evenodd" d="M11.533 34.6h26.868v19.067H11.533V34.6Z" fill="#FF4F12"/></g><mask id="b" mask-type="alpha" maskUnits="userSpaceOnUse" x="15" y="6" width="26" height="44"><path fill-rule="evenodd" clip-rule="evenodd" d="M15 45.867V19.274c0-1.566.606-3.072 1.69-4.202L25.4 6 41 21.6 16.95 45.664a2.148 2.148 0 0 0 1.517 3.67A3.467 3.467 0 0 1 15 45.866Z" fill="#fff"/></mask><g mask="url(#b)"><path fill-rule="evenodd" clip-rule="evenodd" d="M10.667 1.667h34.667v52H10.667v-52Z" fill="#70F"/></g></svg>